<svg id="visual" viewBox="0 0 900 600" width="900" height="600" xmlns="http://www.w3.org/2000/svg" xmlns:xlink="http://www.w3.org/1999/xlink" version="1.1"><rect x="0" y="0" width="900" height="600" fill="#c0f198"></rect><defs><linearGradient id="grad1_0" x1="33.3%" y1="100%" x2="100%" y2="0%"><stop offset="20%" stop-color="#c0f198" stop-opacity="1"></stop><stop offset="80%" stop-color="#c0f198" stop-opacity="1"></stop></linearGradient></defs><defs><linearGradient id="grad2_0" x1="0%" y1="100%" x2="66.7%" y2="0%"><stop offset="20%" stop-color="#c0f198" stop-opacity="1"></stop><stop offset="80%" stop-color="#c0f198" stop-opacity="1"></stop></linearGradient></defs><g transform="translate(900, 600)"><path d="M-405.6 0C-384.1 -48.6 -362.6 -97.3 -340 -140.8C-317.4 -184.4 -293.7 -222.9 -264.5 -264.5C-235.2 -306 -200.2 -350.7 -155.2 -374.7C-110.2 -398.8 -55.1 -402.2 0 -405.6L0 0Z" fill="#dcffbf"></path></g><g transform="translate(0, 0)"><path d="M405.6 0C405.9 60.9 406.2 121.7 370.5 153.5C334.8 185.2 263.2 187.9 226.3 226.3C189.4 264.7 187.2 338.9 155.2 374.7C123.3 410.6 61.6 408.1 0 405.6L0 0Z" fill="#dcffbf"></path></g></svg>